<svg style="display: none"><defs> <clipPath id="close-icon-clip0"> <rect width="24" height="24" fill="white"/> </clipPath>  <clipPath id="symbols-close-icon-clip0"> <rect width="24" height="24" fill="white"/> </clipPath> <clipPath id="symbols-symbols-close-icon-clip0"> <rect width="24" height="24" fill="white"/> </clipPath> <clipPath id="symbols-symbols-symbols-close-icon-clip0"> <rect width="24" height="24" fill="white"/> </clipPath> <clipPath id="symbols-symbols-symbols-symbols-close-icon-clip0"> <rect width="24" height="24" fill="white"/> </clipPath> </defs><symbol viewBox="0 0 24 24" id="close-icon"><title>close-icon</title> <g clip-path="url(#close-icon-clip0)"> <path d="M12.2896 12.0062L21.7201 2.57572C22.0841 2.2242 22.0942 1.64419 21.7427 1.28021C21.3912 0.916237 20.8112 0.906144 20.4472 1.25767C20.4396 1.26502 20.4321 1.27254 20.4246 1.28021L10.9941 10.7107L1.56353 1.28016C1.19956 0.928638 0.619552 0.93873 0.268029 1.30271C-0.0749053 1.65777 -0.0749053 2.22065 0.268029 2.57572L9.69856 12.0062L0.268029 21.4368C-0.0896685 21.7945 -0.0896685 22.3745 0.268029 22.7323C0.62578 23.0899 1.20578 23.0899 1.56353 22.7323L10.9941 13.3017L20.4246 22.7323C20.7886 23.0838 21.3686 23.0737 21.7201 22.7097C22.063 22.3546 22.063 21.7918 21.7201 21.4368L12.2896 12.0062Z" fill="#D51522"/> </g>  </symbol><symbol viewBox="0 0 48 32" id="open-icon"><title>open-icon</title> <rect width="48" height="6" fill="#D51522"/> <rect y="13" width="48" height="6" fill="#D51522"/> <rect y="26" width="48" height="6" fill="#D51522"/> </symbol><symbol id="symbols"><title>close-icon</title><symbol viewBox="0 0 24 24" id="symbols-close-icon"> <g clip-path="url(#symbols-close-icon-clip0)"> <path d="M12.2896 12.0062L21.7201 2.57572C22.0841 2.2242 22.0942 1.64419 21.7427 1.28021C21.3912 0.916237 20.8112 0.906144 20.4472 1.25767C20.4396 1.26502 20.4321 1.27254 20.4246 1.28021L10.9941 10.7107L1.56353 1.28016C1.19956 0.928638 0.619552 0.93873 0.268029 1.30271C-0.0749053 1.65777 -0.0749053 2.22065 0.268029 2.57572L9.69856 12.0062L0.268029 21.4368C-0.0896685 21.7945 -0.0896685 22.3745 0.268029 22.7323C0.62578 23.0899 1.20578 23.0899 1.56353 22.7323L10.9941 13.3017L20.4246 22.7323C20.7886 23.0838 21.3686 23.0737 21.7201 22.7097C22.063 22.3546 22.063 21.7918 21.7201 21.4368L12.2896 12.0062Z" fill="#D51522"/> </g> </symbol><symbol viewBox="0 0 48 32" id="symbols-open-icon"> <rect width="48" height="6" fill="#D51522"/> <rect y="13" width="48" height="6" fill="#D51522"/> <rect y="26" width="48" height="6" fill="#D51522"/> </symbol><symbol id="symbols-symbols"><symbol viewBox="0 0 24 24" id="symbols-symbols-close-icon"> <g clip-path="url(#symbols-symbols-close-icon-clip0)"> <path d="M12.2896 12.0062L21.7201 2.57572C22.0841 2.2242 22.0942 1.64419 21.7427 1.28021C21.3912 0.916237 20.8112 0.906144 20.4472 1.25767C20.4396 1.26502 20.4321 1.27254 20.4246 1.28021L10.9941 10.7107L1.56353 1.28016C1.19956 0.928638 0.619552 0.93873 0.268029 1.30271C-0.0749053 1.65777 -0.0749053 2.22065 0.268029 2.57572L9.69856 12.0062L0.268029 21.4368C-0.0896685 21.7945 -0.0896685 22.3745 0.268029 22.7323C0.62578 23.0899 1.20578 23.0899 1.56353 22.7323L10.9941 13.3017L20.4246 22.7323C20.7886 23.0838 21.3686 23.0737 21.7201 22.7097C22.063 22.3546 22.063 21.7918 21.7201 21.4368L12.2896 12.0062Z" fill="#D51522"/> </g> </symbol><symbol viewBox="0 0 48 32" id="symbols-symbols-open-icon"> <rect width="48" height="6" fill="#D51522"/> <rect y="13" width="48" height="6" fill="#D51522"/> <rect y="26" width="48" height="6" fill="#D51522"/> </symbol><symbol id="symbols-symbols-symbols"><symbol viewBox="0 0 24 24" id="symbols-symbols-symbols-close-icon"> <g clip-path="url(#symbols-symbols-symbols-close-icon-clip0)"> <path d="M12.2896 12.0062L21.7201 2.57572C22.0841 2.2242 22.0942 1.64419 21.7427 1.28021C21.3912 0.916237 20.8112 0.906144 20.4472 1.25767C20.4396 1.26502 20.4321 1.27254 20.4246 1.28021L10.9941 10.7107L1.56353 1.28016C1.19956 0.928638 0.619552 0.93873 0.268029 1.30271C-0.0749053 1.65777 -0.0749053 2.22065 0.268029 2.57572L9.69856 12.0062L0.268029 21.4368C-0.0896685 21.7945 -0.0896685 22.3745 0.268029 22.7323C0.62578 23.0899 1.20578 23.0899 1.56353 22.7323L10.9941 13.3017L20.4246 22.7323C20.7886 23.0838 21.3686 23.0737 21.7201 22.7097C22.063 22.3546 22.063 21.7918 21.7201 21.4368L12.2896 12.0062Z" fill="#D51522"/> </g> </symbol><symbol viewBox="0 0 48 32" id="symbols-symbols-symbols-open-icon"> <rect width="48" height="6" fill="#D51522"/> <rect y="13" width="48" height="6" fill="#D51522"/> <rect y="26" width="48" height="6" fill="#D51522"/> </symbol><symbol id="symbols-symbols-symbols-symbols"><symbol viewBox="0 0 24 24" id="symbols-symbols-symbols-symbols-close-icon"> <g clip-path="url(#symbols-symbols-symbols-symbols-close-icon-clip0)"> <path d="M12.2896 12.0062L21.7201 2.57572C22.0841 2.2242 22.0942 1.64419 21.7427 1.28021C21.3912 0.916237 20.8112 0.906144 20.4472 1.25767C20.4396 1.26502 20.4321 1.27254 20.4246 1.28021L10.9941 10.7107L1.56353 1.28016C1.19956 0.928638 0.619552 0.93873 0.268029 1.30271C-0.0749053 1.65777 -0.0749053 2.22065 0.268029 2.57572L9.69856 12.0062L0.268029 21.4368C-0.0896685 21.7945 -0.0896685 22.3745 0.268029 22.7323C0.62578 23.0899 1.20578 23.0899 1.56353 22.7323L10.9941 13.3017L20.4246 22.7323C20.7886 23.0838 21.3686 23.0737 21.7201 22.7097C22.063 22.3546 22.063 21.7918 21.7201 21.4368L12.2896 12.0062Z" fill="#D51522"/> </g> </symbol><symbol viewBox="0 0 48 32" id="symbols-symbols-symbols-symbols-open-icon"> <rect width="48" height="6" fill="#D51522"/> <rect y="13" width="48" height="6" fill="#D51522"/> <rect y="26" width="48" height="6" fill="#D51522"/> </symbol><symbol id="symbols-symbols-symbols-symbols-symbols"><symbol viewBox="0 0 48 32" id="symbols-symbols-symbols-symbols-symbols-open-icon"> <rect width="48" height="6" fill="#D51522"/> <rect y="13" width="48" height="6" fill="#D51522"/> <rect y="26" width="48" height="6" fill="#D51522"/> </symbol><symbol id="symbols-symbols-symbols-symbols-symbols-symbols"><symbol viewBox="0 0 48 32" id="symbols-symbols-symbols-symbols-symbols-symbols-menu-open-icon"> <rect width="48" height="6" fill="#D51522"/> <rect y="13" width="48" height="6" fill="#D51522"/> <rect y="26" width="48" height="6" fill="#D51522"/> </symbol><symbol id="symbols-symbols-symbols-symbols-symbols-symbols-symbols"><symbol id="symbols-symbols-symbols-symbols-symbols-symbols-symbols-symbols"><symbol id="symbols-symbols-symbols-symbols-symbols-symbols-symbols-symbols-symbols"><symbol id="symbols-symbols-symbols-symbols-symbols-symbols-symbols-symbols-symbols-symbols"><symbol id="symbols-symbols-symbols-symbols-symbols-symbols-symbols-symbols-symbols-symbols-symbols"><symbol id="symbols-symbols-symbols-symbols-symbols-symbols-symbols-symbols-symbols-symbols-symbols-symbols"><symbol id="symbols-symbols-symbols-symbols-symbols-symbols-symbols-symbols-symbols-symbols-symbols-symbols-symbols"><symbol id="symbols-symbols-symbols-symbols-symbols-symbols-symbols-symbols-symbols-symbols-symbols-symbols-symbols-symbols"><symbol id="symbols-symbols-symbols-symbols-symbols-symbols-symbols-symbols-symbols-symbols-symbols-symbols-symbols-symbols-symbols"><symbol id="symbols-symbols-symbols-symbols-symbols-symbols-symbols-symbols-symbols-symbols-symbols-symbols-symbols-symbols-symbols-symbols"><symbol id="symbols-symbols-symbols-symbols-symbols-symbols-symbols-symbols-symbols-symbols-symbols-symbols-symbols-symbols-symbols-symbols-symbols"/></symbol></symbol></symbol></symbol></symbol></symbol></symbol></symbol></symbol></symbol></symbol></symbol></symbol></symbol></symbol></symbol></svg>